<svg xmlns="http://www.w3.org/2000/svg" width="100" height="100" viewBox="0 0 100 100">
  <g id="Group_1" data-name="Group 1" transform="translate(-430 -812)">
    <g id="_1f4fa" data-name="1f4fa" transform="translate(430 812)">
      <path id="Path_1" data-name="Path 1" d="M101,75.456s0,11.731-11.765,11.731H12.765C1,87.188,1,75.456,1,75.456V19.731C1,8,12.765,8,12.765,8H89.235S101,8,101,19.731Z" transform="translate(-1 12.812)" fill="#31373d"/>
      <path id="Path_2" data-name="Path 2" d="M42.46,28.723A2.937,2.937,0,1,1,38.3,32.87L11.266,5.911a2.937,2.937,0,0,1,4.159-4.147L42.46,28.723Z" transform="translate(17.254 -0.904)" fill="#31373d"/>
      <path id="Path_3" data-name="Path 3" d="M15.266,28.723a2.937,2.937,0,0,0,4.159,4.147L46.46,5.911A2.937,2.937,0,0,0,42.3,1.764L15.266,28.723Z" transform="translate(25.019 -0.904)" fill="#31373d"/>
      <path id="Path_4" data-name="Path 4" d="M43.235,11c23.529,0,29.412,2.933,32.353,5.866s5.882,8.8,5.882,23.463-2.941,20.53-5.882,23.463-8.824,5.866-32.353,5.866-29.412-2.933-32.353-5.866S5,54.993,5,40.329,7.941,19.8,10.882,16.866,19.706,11,43.235,11Z" transform="translate(6.765 18.611)" fill="#55acee"/>
      <ellipse id="Ellipse_1" data-name="Ellipse 1" cx="4.412" cy="4.399" rx="4.412" ry="4.399" transform="translate(85.294 85.336)" fill="#66757f"/>
      <ellipse id="Ellipse_2" data-name="Ellipse 2" cx="4.412" cy="4.399" rx="4.412" ry="4.399" transform="translate(5.882 85.336)" fill="#66757f"/>
    </g>
    <g id="_1f1f5-1f1f9" data-name="1f1f5-1f1f9" transform="translate(460.573 856.333)">
      <path id="Path_5" data-name="Path 5" d="M38.981,28.755a4.325,4.325,0,0,1-4.331,4.319H4.331A4.325,4.325,0,0,1,0,28.755V9.319A4.325,4.325,0,0,1,4.331,5H34.65a4.325,4.325,0,0,1,4.331,4.319Z" transform="translate(0 -5)" fill="#060"/>
      <path id="Path_6" data-name="Path 6" d="M33.408,5H15V33.074H33.408a4.325,4.325,0,0,0,4.331-4.319V9.319A4.325,4.325,0,0,0,33.408,5Z" transform="translate(1.242 -5)" fill="#d52b1e"/>
      <path id="Path_7" data-name="Path 7" d="M15.663,10a8.638,8.638,0,1,0,8.663,8.638A8.649,8.649,0,0,0,15.663,10ZM9.043,14.96l1.735,1.73L8.114,18.018A7.489,7.489,0,0,1,9.043,14.96Zm-.929,4.3,4.764,2.383-2.93,1.948.015.023A7.507,7.507,0,0,1,8.114,19.257ZM14.58,26.11a7.534,7.534,0,0,1-2.807-.993H14.58Zm0-2.073H11.224l3.356-2.231Zm0-3.529-.657.437L9.293,18.638,11.585,17.5l3,2.986Zm0-1.554-3.836-3.826,3.836.637Zm0-4.31-4.8-.77a7.566,7.566,0,0,1,4.8-2.708v3.478Zm7.7.316a7.489,7.489,0,0,1,.929,3.059l-2.664-1.328,1.735-1.731Zm-5.536-3.794a7.571,7.571,0,0,1,4.8,2.708l-4.8.77Zm0,4.6,3.836-.638-3.836,3.827Zm0,4.715L19.739,17.5l2.292,1.142L17.4,20.946l-.658-.437Zm0,5.629v-.993h2.807A7.534,7.534,0,0,1,16.745,26.11Zm0-2.073V21.806L20.1,24.037Zm4.617-.427.015-.023-2.93-1.948,4.764-2.383A7.521,7.521,0,0,1,21.362,23.61Z" transform="translate(0.58 -4.601)" fill="#ffcc4d"/>
      <path id="Path_8" data-name="Path 8" d="M11,13v7.558a4.331,4.331,0,0,0,8.663,0V13Z" transform="translate(0.911 -4.362)" fill="#d52b1e"/>
      <path id="Path_9" data-name="Path 9" d="M12,14v6.479a3.248,3.248,0,0,0,6.5,0V14Z" transform="translate(0.994 -4.282)" fill="#fff"/>
      <path id="Path_10" data-name="Path 10" d="M13,17h4.331v2.16H13Z" transform="translate(1.077 -4.043)" fill="#829acd"/>
      <path id="Path_11" data-name="Path 11" d="M14,16h2.166v4.319H14Z" transform="translate(1.159 -4.123)" fill="#829acd"/>
      <path id="Path_12" data-name="Path 12" d="M12,17.239h1.083V19.4H12Zm2.166,0h2.166V19.4H14.166Zm3.248,0H18.5V19.4H17.414Zm-3.248,3.239h2.166v2.16H14.166Zm0-6.479h2.166v2.16H14.166Z" transform="translate(0.994 -4.282)" fill="#039"/>
    </g>
  </g>
</svg>
